<svg version="1.1" id="logoCollegeSVG" xmlns="http://www.w3.org/2000/svg" x="0" y="0" viewBox="0 0 168.1 48.6" xml:space="preserve"><path d="M81.4 29.6c-2.8 0-3.7 1.6-3.7 2.7l.2.2H80l.2-.2c.2-.5.7-.5 1.2-.5 1.1 0 1.2.2 1.2 1.1v.2l-.2.2s-.5-.2-1.2-.2c-1.4 0-3.9.4-3.9 3 0 1.8 1.2 2.8 3.2 2.8 1.2 0 2-.7 2-.7h.2l.2.4.2.2h2l.2-.2v-4.8c-.1-2.8-1-4.2-3.9-4.2m1.3 5.8c0 .7-.7 1.2-1.6 1.2-.9 0-1.2-.4-1.2-.9 0-.7.5-1.1 1.6-1.1.7 0 1.1.2 1.1.2l.2.2v.4zm74.2-5.7l-.2.2-2.1 5.5h-.2l-2.1-5.5-.2-.2h-1.6l-.2.2v1.8l3 6.7.2.2h2l.2-.2 3-6.7v-1.8l-.2-.2h-1.6zm6.9-.1c-2.8 0-4.3 2.1-4.3 4.6 0 2.5 1.4 4.6 4.4 4.6 2.7 0 3.6-1.6 3.7-2.7l-.2-.2h-2.1l-.2.2c-.2.4-.7.5-1.2.5-1.4 0-1.8-1.1-1.8-1.4l.2-.2h5.5l.2-.2v-.7c.1-2.4-1.3-4.5-4.2-4.5m1.5 3.7h-2.8l-.2-.2c0-.2.2-1.4 1.6-1.4 1.4 0 1.6 1.2 1.6 1.4l-.2.2zm-18.9-3.6l-.2.2v4.6c0 1.2-.5 2.1-1.8 2.1-1.1 0-1.4-.7-1.4-1.6v-5.2l-.2-.2h-2.1l-.2.2v5.3c0 2.1 1.2 3.6 3.4 3.6 1.6 0 2.1-.9 2.1-.9h.2l.2.5.2.2h2l.2-.2v-8.5l-.2-.2h-2.2zm-73.8-3.5l-.2.2-3.6 8.7h-.2L65 26.4l-.2-.2h-2.7l-.2.2v12.1l.2.2h2.1l.2-.2v-6.9h.2l2.8 6.9.2.2h2l.2-.2 2.8-6.9h.2v6.9l.2.2h2.1l.2-.2V26.4l-.2-.2h-2.5zm14.7 3.5l-.2.2v8.5l.2.2h2.1l.2-.2v-8.5l-.2-.2h-2.1zm47.6-.1c-2.8 0-4.3 2.1-4.3 4.6 0 2.5 1.4 4.6 4.4 4.6 2.7 0 3.6-1.6 3.7-2.7l-.2-.2h-2.1l-.2.2c-.2.4-.7.5-1.2.5-1.4 0-1.8-1.1-1.8-1.4l.2-.2h5.5l.2-.2v-.7c.1-2.4-1.4-4.5-4.2-4.5m1.4 3.7h-2.8l-.2-.2c0-.2.2-1.4 1.6-1.4 1.4 0 1.6 1.2 1.6 1.4l-.2.2zm-20.8-3.7c-1.2 0-2 .5-2.3.9h-.2l-.2-.5-.2-.2h-2l-.2.2v8.5l.2.2h2.1l.2-.2V34c0-1.6.7-2.3 2-2.3 1.1 0 1.4.7 1.4 1.6v5.2l.2.2h2.1l.2-.2v-5.3c.1-2.2-1.1-3.6-3.3-3.6m-11 0c-2.7 0-4.4 1.8-4.4 4.6s1.8 4.6 4.4 4.6 4.4-1.8 4.4-4.6c.1-2.9-1.7-4.6-4.4-4.6m0 7.1c-1.2 0-2-.9-2-2.5s.7-2.5 2-2.5c1.2 0 2 .9 2 2.5s-.7 2.5-2 2.5m21.3-7.1c-1.2 0-2 .5-2.3.9h-.2l-.2-.5-.2-.2h-2l-.2.2v8.5l.2.2h2.1l.2-.2V34c0-1.6.7-2.3 2-2.3 1.1 0 1.4.7 1.4 1.6v5.2l.2.2h2.1l.2-.2v-5.3c.1-2.2-1.1-3.6-3.3-3.6M96 33.3c-1.1-.2-2.1-.2-2.1-.9 0-.5.4-.7 1.2-.7.9 0 1.2.2 1.2.5l.2.2h2.1l.2-.2c0-1.8-1.6-2.7-3.7-2.7-2.7 0-3.7 1.2-3.7 2.7 0 2.1 2.3 2.7 3.4 2.8 1.1.2 1.8.2 1.8.9 0 .5-.5.7-1.4.7-.9 0-1.4-.2-1.4-.9l-.2-.2h-2.1l-.2.2c0 1.8 1.4 3 3.9 3 2.8 0 3.9-1.4 3.9-2.8-.1-2.1-2-2.4-3.1-2.6m-8.7-7.1l-.2.2v1.8l.2.2h2.1l.2-.2v-1.8l-.2-.2h-2.1zm2.4-13.4h.3l.2-.2v-.4l-1.4-1.5-.4-.2h-.6l-.2.2v.3l1.7 1.5.4.3zM84.2 21l.2-.2V10.6l-.2-.2h-.7l-.2.2v10.2l.2.2h.7zm21.3.2c2 0 2.9-1.2 3.1-2.4v-.1l-.3-.3h-.7l-.2.2c-.3.9-.9 1.4-1.9 1.4-1.9 0-2.3-1.7-2.3-2.4h5.3l.2-.2v-.5c0-2.3-1.3-3.7-3.4-3.7-2.1 0-3.4 1.5-3.4 3.7v.3c.1 1.9 1 4 3.6 4m-.1-7c1.7 0 2.2 1.4 2.2 2.3h-4.3c-.1-.9.4-2.3 2.1-2.3m20.5 7c2 0 2.9-1.2 3.1-2.4v-.1l-.3-.3h-.7l-.2.2c-.3.9-.9 1.4-1.9 1.4-1.9 0-2.3-1.7-2.3-2.4h5.3l.2-.2v-.5c0-2.3-1.3-3.7-3.4-3.7s-3.4 1.5-3.4 3.7v.3c.1 1.9 1 4 3.6 4m-.1-7c1.7 0 2.2 1.4 2.2 2.3h-4.3c-.1-.9.4-2.3 2.1-2.3m-25.3-.6l-.2-.2h-.6l-.2.2-.1.7c-.3-.4-1-1.1-2.4-1.1-2 0-3.3 1.5-3.3 4s1.3 4 3.3 4c1.3 0 2-.6 2.3-1-.1 2-.7 2.9-2 2.9s-1.6-.6-1.8-1.2l-.2-.2h-.7l-.3.3v.1c.2 1.4 1.3 2.2 3 2.2 2.2 0 3.3-1.4 3.3-4.3v-6.4zm-3.4 6.5c-1.8 0-2.2-1.6-2.2-2.9 0-1.3.4-2.9 2.2-2.9 1.8 0 2.2 1.6 2.2 2.9 0 1.3-.4 2.9-2.2 2.9m-16 .9l.2-.2V10.6l-.2-.2h-.7l-.2.2v10.2l.2.2h.7zm11.4-2.2l-.2-.3h-.7l-.2.2c-.3.9-.9 1.4-1.9 1.4-1.9 0-2.3-1.7-2.3-2.4h5.3l.2-.2V17c0-2.3-1.3-3.7-3.4-3.7-2.1 0-3.4 1.5-3.4 3.7v.3c0 1.9.9 4 3.6 4 1.9-.1 2.9-1.3 3-2.5m-3.2-4.6c1.7 0 2.2 1.4 2.2 2.3h-4.3c-.1-.9.4-2.3 2.1-2.3m31.6-3.6l-.2-.2h-.7l-.2.2v3.6c-.3-.4-1-1-2.3-1-2 0-3.3 1.5-3.3 4s1.3 4 3.3 4c1.4 0 2.1-.6 2.4-1.1l.1.7.2.2h.6l.2-.2V10.6zm-3.4 9.5c-1.8 0-2.2-1.6-2.2-2.9 0-1.3.4-2.9 2.2-2.9s2.2 1.6 2.2 2.9c0 1.3-.4 2.9-2.2 2.9m-42.4 1.1c2.2 0 3.6-1.6 3.6-4s-1.4-4-3.6-4-3.6 1.6-3.6 4 1.4 4 3.6 4m0-7c1.4 0 2.3 1.2 2.3 2.9 0 1.8-.9 2.9-2.3 2.9s-2.3-1.2-2.3-2.9c-.1-1.7.9-2.9 2.3-2.9m-8.9 7c2.3 0 3.9-1.3 4.2-3.4v-.1l-.3-.3h-.7l-.2.2v.1c-.3 1.6-1.3 2.4-2.9 2.4-2.3 0-3.7-1.7-3.7-4.4s1.4-4.4 3.7-4.4c1.6 0 2.6.8 2.9 2.2l.2.2h.7l.3-.3v-.1c-.3-2-1.8-3.2-4.2-3.2-2.4 0-4.9 1.7-4.9 5.5 0 3.9 2.5 5.6 4.9 5.6M24.3 48.6H0V0l24.3 24.3z" fill="#fff"/><path fill="#e0e1e2" d="M24.3 48.6h24.3V0L24.3 24.3z"/><path fill="#636466" d="M24.3 24.3L0 0h48.6z"/></svg>